<svg xmlns="http://www.w3.org/2000/svg" xmlns:xlink="http://www.w3.org/1999/xlink" width="48" zoomAndPan="magnify" viewBox="0 0 36 36.000001" height="48" preserveAspectRatio="xMidYMid meet" version="1.0"><defs><filter x="0%" y="0%" width="100%" height="100%" id="f04a08bb10"><feColorMatrix values="0 0 0 0 1 0 0 0 0 1 0 0 0 0 1 0 0 0 1 0" color-interpolation-filters="sRGB"/></filter><clipPath id="f92b59cb88"><path d="M 0.488281 0 L 35.511719 0 L 35.511719 35 L 0.488281 35 Z M 0.488281 0 " clip-rule="nonzero"/></clipPath><mask id="cf164586de"><g filter="url(#f04a08bb10)"><rect x="-3.6" width="43.2" fill="#000000" y="-3.6" height="43.200001" fill-opacity="0.83"/></g></mask><clipPath id="098e1daadb"><path d="M 0.488281 0 L 34.785156 0 L 34.785156 34.296875 L 0.488281 34.296875 Z M 0.488281 0 " clip-rule="nonzero"/></clipPath><clipPath id="77da974509"><rect x="0" width="36" y="0" height="35"/></clipPath><mask id="a4d3bb42b9"><g filter="url(#f04a08bb10)"><rect x="-3.6" width="43.2" fill="#000000" y="-3.6" height="43.200001" fill-opacity="0.83"/></g></mask><clipPath id="056cacacc6"><path d="M 0.488281 0 L 34.785156 0 L 34.785156 34.296875 L 0.488281 34.296875 Z M 0.488281 0 " clip-rule="nonzero"/></clipPath><clipPath id="c9463c0cf9"><rect x="0" width="36" y="0" height="35"/></clipPath></defs><g clip-path="url(#f92b59cb88)"><g mask="url(#cf164586de)"><g transform="matrix(1, 0, 0, 1, 0.000000000000000056, 0.000000000000010582)"><g clip-path="url(#77da974509)"><g clip-path="url(#098e1daadb)"><path fill="#ffbd59" d="M 16.589844 0 C 7.707031 0 0.488281 7.21875 0.488281 16.105469 C 0.488281 24.988281 7.707031 32.210938 16.589844 32.210938 C 18.097656 32.210938 19.570312 31.992188 20.984375 31.59375 L 20.984375 28.765625 C 19.890625 29.824219 18.648438 30.503906 17.324219 30.6875 L 17.324219 24.890625 L 20.984375 24.890625 L 20.984375 23.425781 L 17.324219 23.425781 L 17.324219 16.835938 L 20.984375 16.835938 L 20.984375 15.375 L 17.324219 15.375 L 17.324219 8.785156 L 24.183594 8.785156 C 24.839844 10.675781 25.253906 12.824219 25.34375 15.125 L 26.109375 15.84375 L 26.832031 16.515625 L 27.171875 16.835938 L 31.207031 16.835938 C 31.148438 17.957031 30.972656 19.054688 30.667969 20.117188 L 31.851562 21.226562 C 32.40625 19.589844 32.695312 17.867188 32.695312 16.105469 C 32.695312 7.21875 25.476562 0 16.589844 0 Z M 15.859375 1.523438 L 15.859375 7.320312 L 9.59375 7.320312 C 9.867188 6.71875 10.160156 6.140625 10.484375 5.621094 C 11.945312 3.261719 13.828125 1.808594 15.859375 1.523438 Z M 17.324219 1.523438 C 19.890625 1.878906 22.140625 4.074219 23.601562 7.320312 L 17.324219 7.320312 Z M 22.082031 2.527344 C 24.570312 3.535156 26.707031 5.207031 28.296875 7.320312 L 25.171875 7.320312 C 24.371094 5.394531 23.316406 3.761719 22.082031 2.527344 Z M 11.046875 2.554688 C 10.386719 3.222656 9.773438 3.984375 9.238281 4.851562 C 8.769531 5.609375 8.351562 6.4375 7.988281 7.320312 L 4.894531 7.320312 C 6.46875 5.222656 8.585938 3.5625 11.046875 2.554688 Z M 3.921875 8.785156 L 7.457031 8.785156 C 6.8125 10.78125 6.429688 13.011719 6.367188 15.375 L 1.96875 15.375 C 2.085938 12.976562 2.789062 10.742188 3.921875 8.785156 Z M 9.003906 8.785156 L 15.859375 8.785156 L 15.859375 15.375 L 7.828125 15.375 C 7.902344 12.976562 8.320312 10.734375 9.003906 8.785156 Z M 25.707031 8.785156 L 29.273438 8.785156 C 30.402344 10.742188 31.09375 12.980469 31.210938 15.375 L 26.816406 15.375 C 26.75 13.007812 26.359375 10.777344 25.707031 8.785156 Z M 1.96875 16.835938 L 6.367188 16.835938 C 6.429688 19.199219 6.8125 21.429688 7.457031 23.425781 L 3.921875 23.425781 C 2.789062 21.46875 2.085938 19.234375 1.96875 16.835938 Z M 7.828125 16.835938 L 15.859375 16.835938 L 15.859375 23.425781 L 9.003906 23.425781 C 8.320312 21.476562 7.902344 19.234375 7.828125 16.835938 Z M 23.878906 16.835938 C 23.488281 16.855469 23.179688 17.175781 23.179688 17.570312 L 23.179688 31.660156 C 23.179688 31.957031 23.359375 32.226562 23.632812 32.335938 C 23.90625 32.449219 24.222656 32.386719 24.429688 32.179688 L 26.632812 29.972656 L 28.472656 33.980469 C 28.640625 34.347656 29.078125 34.507812 29.445312 34.339844 L 32.269531 33.046875 C 32.636719 32.875 32.796875 32.441406 32.628906 32.074219 L 30.722656 27.910156 L 34.160156 27.910156 C 34.460938 27.910156 34.734375 27.726562 34.839844 27.445312 C 34.953125 27.167969 34.882812 26.847656 34.660156 26.644531 L 24.414062 17.035156 C 24.265625 16.898438 24.074219 16.828125 23.878906 16.835938 Z M 24.644531 19.257812 L 32.308594 26.445312 L 29.675781 26.445312 C 29.5625 26.445312 29.453125 26.472656 29.347656 26.523438 L 29.269531 26.5625 C 28.917969 26.738281 28.769531 27.164062 28.933594 27.519531 L 30.992188 32.015625 L 29.496094 32.703125 L 27.527344 28.402344 C 27.429688 28.1875 27.226562 28.03125 26.992188 27.988281 C 26.753906 27.945312 26.515625 28.023438 26.347656 28.195312 L 24.644531 29.894531 Z M 4.894531 24.890625 L 7.988281 24.890625 C 8.351562 25.773438 8.769531 26.601562 9.238281 27.359375 C 9.773438 28.222656 10.386719 28.988281 11.046875 29.652344 C 8.585938 28.648438 6.46875 26.984375 4.894531 24.890625 Z M 9.59375 24.890625 L 15.859375 24.890625 L 15.859375 30.6875 C 13.828125 30.398438 11.945312 28.949219 10.484375 26.589844 C 10.160156 26.066406 9.867188 25.492188 9.59375 24.890625 Z M 9.59375 24.890625 " fill-opacity="1" fill-rule="nonzero"/></g></g></g></g><g mask="url(#a4d3bb42b9)"><g transform="matrix(1, 0, 0, 1, 0.000000000000000056, 0.000000000000010582)"><g clip-path="url(#c9463c0cf9)"><g clip-path="url(#056cacacc6)"><path fill="#ffbd59" d="M 16.589844 0 C 7.707031 0 0.488281 7.21875 0.488281 16.105469 C 0.488281 24.988281 7.707031 32.210938 16.589844 32.210938 C 18.097656 32.210938 19.570312 31.992188 20.984375 31.59375 L 20.984375 28.765625 C 19.890625 29.824219 18.648438 30.503906 17.324219 30.6875 L 17.324219 24.890625 L 20.984375 24.890625 L 20.984375 23.425781 L 17.324219 23.425781 L 17.324219 16.835938 L 20.984375 16.835938 L 20.984375 15.375 L 17.324219 15.375 L 17.324219 8.785156 L 24.183594 8.785156 C 24.839844 10.675781 25.253906 12.824219 25.34375 15.125 L 26.109375 15.84375 L 26.832031 16.515625 L 27.171875 16.835938 L 31.207031 16.835938 C 31.148438 17.957031 30.972656 19.054688 30.667969 20.117188 L 31.851562 21.226562 C 32.40625 19.589844 32.695312 17.867188 32.695312 16.105469 C 32.695312 7.21875 25.476562 0 16.589844 0 Z M 15.859375 1.523438 L 15.859375 7.320312 L 9.59375 7.320312 C 9.867188 6.71875 10.160156 6.140625 10.484375 5.621094 C 11.945312 3.261719 13.828125 1.808594 15.859375 1.523438 Z M 17.324219 1.523438 C 19.890625 1.878906 22.140625 4.074219 23.601562 7.320312 L 17.324219 7.320312 Z M 22.082031 2.527344 C 24.570312 3.535156 26.707031 5.207031 28.296875 7.320312 L 25.171875 7.320312 C 24.371094 5.394531 23.316406 3.761719 22.082031 2.527344 Z M 11.046875 2.554688 C 10.386719 3.222656 9.773438 3.984375 9.238281 4.851562 C 8.769531 5.609375 8.351562 6.4375 7.988281 7.320312 L 4.894531 7.320312 C 6.46875 5.222656 8.585938 3.5625 11.046875 2.554688 Z M 3.921875 8.785156 L 7.457031 8.785156 C 6.8125 10.78125 6.429688 13.011719 6.367188 15.375 L 1.96875 15.375 C 2.085938 12.976562 2.789062 10.742188 3.921875 8.785156 Z M 9.003906 8.785156 L 15.859375 8.785156 L 15.859375 15.375 L 7.828125 15.375 C 7.902344 12.976562 8.320312 10.734375 9.003906 8.785156 Z M 25.707031 8.785156 L 29.273438 8.785156 C 30.402344 10.742188 31.09375 12.980469 31.210938 15.375 L 26.816406 15.375 C 26.75 13.007812 26.359375 10.777344 25.707031 8.785156 Z M 1.96875 16.835938 L 6.367188 16.835938 C 6.429688 19.199219 6.8125 21.429688 7.457031 23.425781 L 3.921875 23.425781 C 2.789062 21.46875 2.085938 19.234375 1.96875 16.835938 Z M 7.828125 16.835938 L 15.859375 16.835938 L 15.859375 23.425781 L 9.003906 23.425781 C 8.320312 21.476562 7.902344 19.234375 7.828125 16.835938 Z M 23.878906 16.835938 C 23.488281 16.855469 23.179688 17.175781 23.179688 17.570312 L 23.179688 31.660156 C 23.179688 31.957031 23.359375 32.226562 23.632812 32.335938 C 23.90625 32.449219 24.222656 32.386719 24.429688 32.179688 L 26.632812 29.972656 L 28.472656 33.980469 C 28.640625 34.347656 29.078125 34.507812 29.445312 34.339844 L 32.269531 33.046875 C 32.636719 32.875 32.796875 32.441406 32.628906 32.074219 L 30.722656 27.910156 L 34.160156 27.910156 C 34.460938 27.910156 34.734375 27.726562 34.839844 27.445312 C 34.953125 27.167969 34.882812 26.847656 34.660156 26.644531 L 24.414062 17.035156 C 24.265625 16.898438 24.074219 16.828125 23.878906 16.835938 Z M 24.644531 19.257812 L 32.308594 26.445312 L 29.675781 26.445312 C 29.5625 26.445312 29.453125 26.472656 29.347656 26.523438 L 29.269531 26.5625 C 28.917969 26.738281 28.769531 27.164062 28.933594 27.519531 L 30.992188 32.015625 L 29.496094 32.703125 L 27.527344 28.402344 C 27.429688 28.1875 27.226562 28.03125 26.992188 27.988281 C 26.753906 27.945312 26.515625 28.023438 26.347656 28.195312 L 24.644531 29.894531 Z M 4.894531 24.890625 L 7.988281 24.890625 C 8.351562 25.773438 8.769531 26.601562 9.238281 27.359375 C 9.773438 28.222656 10.386719 28.988281 11.046875 29.652344 C 8.585938 28.648438 6.46875 26.984375 4.894531 24.890625 Z M 9.59375 24.890625 L 15.859375 24.890625 L 15.859375 30.6875 C 13.828125 30.398438 11.945312 28.949219 10.484375 26.589844 C 10.160156 26.066406 9.867188 25.492188 9.59375 24.890625 Z M 9.59375 24.890625 " fill-opacity="1" fill-rule="nonzero"/></g></g></g></g></g></svg>