<svg xmlns="http://www.w3.org/2000/svg" xmlns:xlink="http://www.w3.org/1999/xlink" width="39" zoomAndPan="magnify" viewBox="0 0 29.25 29.250001" height="39" preserveAspectRatio="xMidYMid meet" version="1.0"><defs><filter x="0%" y="0%" width="100%" height="100%" id="d53a246950"><feColorMatrix values="0 0 0 0 1 0 0 0 0 1 0 0 0 0 1 0 0 0 1 0" color-interpolation-filters="sRGB"/></filter><clipPath id="65130bc76c"><path d="M 0 0 L 28.519531 0 L 28.519531 28.519531 L 0 28.519531 Z M 0 0 " clip-rule="nonzero"/></clipPath><mask id="e2f2db141e"><g filter="url(#d53a246950)"><rect x="-2.925" width="35.1" fill="#000000" y="-2.925" height="35.100001" fill-opacity="0.83"/></g></mask><clipPath id="59da493926"><path d="M 0 0 L 27.789062 0 L 27.789062 27.789062 L 0 27.789062 Z M 0 0 " clip-rule="nonzero"/></clipPath><clipPath id="8e41ad39d9"><rect x="0" width="29" y="0" height="29"/></clipPath><mask id="3bdbeebd6d"><g filter="url(#d53a246950)"><rect x="-2.925" width="35.1" fill="#000000" y="-2.925" height="35.100001" fill-opacity="0.83"/></g></mask><clipPath id="88eee1e7f3"><path d="M 0 0 L 27.789062 0 L 27.789062 27.789062 L 0 27.789062 Z M 0 0 " clip-rule="nonzero"/></clipPath><clipPath id="de9638037f"><rect x="0" width="29" y="0" height="29"/></clipPath></defs><g clip-path="url(#65130bc76c)"><g mask="url(#e2f2db141e)"><g transform="matrix(1, 0, 0, 1, 0, 0.00000000000000069)"><g clip-path="url(#8e41ad39d9)"><g clip-path="url(#59da493926)"><path fill="#ebb840" d="M 13.894531 27.789062 C 6.21875 27.789062 0 21.566406 0 13.894531 C 0 6.21875 6.21875 0 13.894531 0 C 21.566406 0 27.789062 6.21875 27.789062 13.894531 C 27.789062 21.566406 21.566406 27.789062 13.894531 27.789062 Z M 13.894531 27.789062 " fill-opacity="1" fill-rule="nonzero"/></g><path fill="#f4f4f4" d="M 11.828125 21.078125 L 11.066406 20.320312 L 17.492188 13.894531 L 11.066406 7.46875 L 11.828125 6.707031 L 19.011719 13.894531 Z M 11.828125 21.078125 " fill-opacity="1" fill-rule="nonzero"/></g></g></g><g mask="url(#3bdbeebd6d)"><g transform="matrix(1, 0, 0, 1, 0, 0.00000000000000069)"><g clip-path="url(#de9638037f)"><g clip-path="url(#88eee1e7f3)"><path fill="#ebb840" d="M 13.894531 27.789062 C 6.21875 27.789062 0 21.566406 0 13.894531 C 0 6.21875 6.21875 0 13.894531 0 C 21.566406 0 27.789062 6.21875 27.789062 13.894531 C 27.789062 21.566406 21.566406 27.789062 13.894531 27.789062 Z M 13.894531 27.789062 " fill-opacity="1" fill-rule="nonzero"/></g><path fill="#f4f4f4" d="M 11.828125 21.078125 L 11.066406 20.320312 L 17.492188 13.894531 L 11.066406 7.46875 L 11.828125 6.707031 L 19.011719 13.894531 Z M 11.828125 21.078125 " fill-opacity="1" fill-rule="nonzero"/></g></g></g></g></svg>